HIERARCHY
ROOT Hips
{
	OFFSET -0.302719 85.452522 8.560009
	CHANNELS 6 Xposition Yposition Zposition Zrotation Yrotation Xrotation 
	JOINT Spine
	{
		OFFSET -0.000000 8.814246 -2.080107
		CHANNELS 3 Zrotation Yrotation Xrotation
		JOINT Spine1
		{
			OFFSET -0.000000 8.844141 0.000000
			CHANNELS 3 Zrotation Yrotation Xrotation
			JOINT Spine2
			{
				OFFSET -0.000000 11.682268 0.000000
				CHANNELS 3 Zrotation Yrotation Xrotation
				JOINT Spine3
				{
					OFFSET -0.000000 11.746700 0.000000
					CHANNELS 3 Zrotation Yrotation Xrotation
					JOINT Neck
					{
						OFFSET -0.000000 17.658264 0.000000
						CHANNELS 3 Zrotation Yrotation Xrotation
						JOINT Neck1
						{
							OFFSET -0.000000 5.101515 0.000000
							CHANNELS 3 Zrotation Yrotation Xrotation
							JOINT Head
							{
								OFFSET 0.000000 5.101515 -0.000000
								CHANNELS 3 Zrotation Yrotation Xrotation
								JOINT HeadEnd
								{
									OFFSET 0.000000 11.655085 -0.000000
									CHANNELS 3 Zrotation Yrotation Xrotation
									End Site
									{
										OFFSET 0.000000 0.000000 0.000000
									}
								}
							}
						}
					}
					JOINT RightShoulder
					{
						OFFSET -2.625389 11.175210 -0.000000
						CHANNELS 3 Zrotation Yrotation Xrotation
						JOINT RightArm
						{
							OFFSET -0.000000 10.434715 -0.000000
							CHANNELS 3 Zrotation Yrotation Xrotation
							JOINT RightForeArm
							{
								OFFSET -0.000000 29.628420 0.000000
								CHANNELS 3 Zrotation Yrotation Xrotation
								JOINT RightHand
								{
									OFFSET -0.000000 22.857611 0.000000
									CHANNELS 3 Zrotation Yrotation Xrotation
									JOINT RightHandThumb1
									{
										OFFSET -2.867323 3.959563 2.944291
										CHANNELS 3 Zrotation Yrotation Xrotation
										JOINT RightHandThumb2
										{
											OFFSET -0.000000 3.350399 0.000000
											CHANNELS 3 Zrotation Yrotation Xrotation
											JOINT RightHandThumb3
											{
												OFFSET 0.000000 3.756509 0.000000
												CHANNELS 3 Zrotation Yrotation Xrotation
												JOINT RightHandThumb4
												{
													OFFSET 0.000000 3.147345 0.000000
													CHANNELS 3 Zrotation Yrotation Xrotation
													End Site
													{
														OFFSET 0.000000 0.000000 0.000000
													}
												}
											}
										}
									}
									JOINT RightHandIndex1
									{
										OFFSET -0.086752 10.030893 2.345280
										CHANNELS 3 Zrotation Yrotation Xrotation
										JOINT RightHandIndex2
										{
											OFFSET 0.000000 4.061090 -0.000000
											CHANNELS 3 Zrotation Yrotation Xrotation
											JOINT RightHandIndex3
											{
												OFFSET -0.000000 3.248873 0.000000
												CHANNELS 3 Zrotation Yrotation Xrotation
												JOINT RightHandIndex4
												{
													OFFSET -0.000000 2.639709 0.000000
													CHANNELS 3 Zrotation Yrotation Xrotation
													End Site
													{
														OFFSET 0.000000 0.000000 0.000000
													}
												}
											}
										}
									}
									JOINT RightHandMiddle1
									{
										OFFSET 0.104102 9.502952 0.006768
										CHANNELS 3 Zrotation Yrotation Xrotation
										JOINT RightHandMiddle2
										{
											OFFSET -0.000000 4.568727 0.000000
											CHANNELS 3 Zrotation Yrotation Xrotation
											JOINT RightHandMiddle3
											{
												OFFSET -0.000000 3.654981 -0.000000
												CHANNELS 3 Zrotation Yrotation Xrotation
												JOINT RightHandMiddle4
												{
													OFFSET -0.000000 2.741236 -0.000000
													CHANNELS 3 Zrotation Yrotation Xrotation
													End Site
													{
														OFFSET 0.000000 0.000000 0.000000
													}
												}
											}
										}
									}
									JOINT RightHandRing1
									{
										OFFSET 0.086752 8.921708 -2.267442
										CHANNELS 3 Zrotation Yrotation Xrotation
										JOINT RightHandRing2
										{
											OFFSET 0.000000 4.061090 -0.000000
											CHANNELS 3 Zrotation Yrotation Xrotation
											JOINT RightHandRing3
											{
												OFFSET 0.000000 3.654981 -0.000000
												CHANNELS 3 Zrotation Yrotation Xrotation
												JOINT RightHandRing4
												{
													OFFSET -0.000000 2.741236 0.000000
													CHANNELS 3 Zrotation Yrotation Xrotation
													End Site
													{
														OFFSET 0.000000 0.000000 0.000000
													}
												}
											}
										}
									}
									JOINT RightHandPinky1
									{
										OFFSET -0.173504 7.976997 -4.467199
										CHANNELS 3 Zrotation Yrotation Xrotation
										JOINT RightHandPinky2
										{
											OFFSET -0.000000 3.350399 0.000000
											CHANNELS 3 Zrotation Yrotation Xrotation
											JOINT RightHandPinky3
											{
												OFFSET -0.000000 2.842763 -0.000000
												CHANNELS 3 Zrotation Yrotation Xrotation
												JOINT RightHandPinky4
												{
													OFFSET 0.000000 2.639709 0.000000
													CHANNELS 3 Zrotation Yrotation Xrotation
													End Site
													{
														OFFSET 0.000000 0.000000 0.000000
													}
												}
											}
										}
									}
									JOINT RightForeArmEnd
									{
										OFFSET 0.000000 0.000000 0.000000
										CHANNELS 3 Zrotation Yrotation Xrotation
										End Site
										{
											OFFSET 0.000000 0.000000 0.000000
										}
									}
								}
								JOINT RightArmEnd
								{
									OFFSET 0.000000 0.000000 0.000000
									CHANNELS 3 Zrotation Yrotation Xrotation
									End Site
									{
										OFFSET 0.000000 0.000000 0.000000
									}
								}
							}
						}
					}
					JOINT LeftShoulder
					{
						OFFSET 2.625389 11.175210 -0.000000
						CHANNELS 3 Zrotation Yrotation Xrotation
						JOINT LeftArm
						{
							OFFSET -0.000000 10.813635 0.000000
							CHANNELS 3 Zrotation Yrotation Xrotation
							JOINT LeftForeArm
							{
								OFFSET -0.000000 28.724781 -0.000000
								CHANNELS 3 Zrotation Yrotation Xrotation
								JOINT LeftHand
								{
									OFFSET 0.644384 25.716167 -0.328871
									CHANNELS 3 Zrotation Yrotation Xrotation
									JOINT LeftHandThumb1
									{
										OFFSET 2.867323 3.959563 2.944291
										CHANNELS 3 Zrotation Yrotation Xrotation
										JOINT LeftHandThumb2
										{
											OFFSET -0.000000 3.350399 -0.000000
											CHANNELS 3 Zrotation Yrotation Xrotation
											JOINT LeftHandThumb3
											{
												OFFSET 0.000000 3.756509 0.000000
												CHANNELS 3 Zrotation Yrotation Xrotation
												JOINT LeftHandThumb4
												{
													OFFSET 0.000000 3.100000 0.000000
													CHANNELS 3 Zrotation Yrotation Xrotation
													End Site
													{
														OFFSET 0.000000 0.000000 0.000000
													}
												}
											}
										}
									}
									JOINT LeftHandIndex1
									{
										OFFSET 0.086752 10.030893 2.345280
										CHANNELS 3 Zrotation Yrotation Xrotation
										JOINT LeftHandIndex2
										{
											OFFSET 0.000000 4.061090 0.000000
											CHANNELS 3 Zrotation Yrotation Xrotation
											JOINT LeftHandIndex3
											{
												OFFSET 0.000000 3.248873 -0.000000
												CHANNELS 3 Zrotation Yrotation Xrotation
												JOINT LeftHandIndex4
												{
													OFFSET 0.000000 2.639709 0.000000
													CHANNELS 3 Zrotation Yrotation Xrotation
													End Site
													{
														OFFSET 0.000000 0.000000 0.000000
													}
												}
											}
										}
									}
									JOINT LeftHandMiddle1
									{
										OFFSET -0.104102 9.502952 0.006768
										CHANNELS 3 Zrotation Yrotation Xrotation
										JOINT LeftHandMiddle2
										{
											OFFSET -0.000000 4.568727 -0.000000
											CHANNELS 3 Zrotation Yrotation Xrotation
											JOINT LeftHandMiddle3
											{
												OFFSET 0.000000 3.654981 0.000000
												CHANNELS 3 Zrotation Yrotation Xrotation
												JOINT LeftHandMiddle4
												{
													OFFSET 0.000000 2.741236 0.000000
													CHANNELS 3 Zrotation Yrotation Xrotation
													End Site
													{
														OFFSET 0.000000 0.000000 0.000000
													}
												}
											}
										}
									}
									JOINT LeftHandRing1
									{
										OFFSET -0.086752 8.921708 -2.267442
										CHANNELS 3 Zrotation Yrotation Xrotation
										JOINT LeftHandRing2
										{
											OFFSET 0.000000 4.061090 0.000000
											CHANNELS 3 Zrotation Yrotation Xrotation
											JOINT LeftHandRing3
											{
												OFFSET -0.000000 3.654981 -0.000000
												CHANNELS 3 Zrotation Yrotation Xrotation
												JOINT LeftHandRing4
												{
													OFFSET 0.000000 2.741236 -0.000000
													CHANNELS 3 Zrotation Yrotation Xrotation
													End Site
													{
														OFFSET 0.000000 0.000000 0.000000
													}
												}
											}
										}
									}
									JOINT LeftHandPinky1
									{
										OFFSET 0.173504 7.976997 -4.467199
										CHANNELS 3 Zrotation Yrotation Xrotation
										JOINT LeftHandPinky2
										{
											OFFSET -0.000000 3.350399 -0.000000
											CHANNELS 3 Zrotation Yrotation Xrotation
											JOINT LeftHandPinky3
											{
												OFFSET 0.000000 2.842763 0.000000
												CHANNELS 3 Zrotation Yrotation Xrotation
												JOINT LeftHandPinky4
												{
													OFFSET 0.000000 2.639709 0.000000
													CHANNELS 3 Zrotation Yrotation Xrotation
													End Site
													{
														OFFSET 0.000000 0.000000 0.000000
													}
												}
											}
										}
									}
									JOINT LeftForeArmEnd
									{
										OFFSET 0.000000 0.000000 0.000000
										CHANNELS 3 Zrotation Yrotation Xrotation
										End Site
										{
											OFFSET 0.000000 0.000000 0.000000
										}
									}
								}
								JOINT LeftArmEnd
								{
									OFFSET 0.000000 0.000000 0.000000
									CHANNELS 3 Zrotation Yrotation Xrotation
									End Site
									{
										OFFSET 0.000000 0.000000 0.000000
									}
								}
							}
						}
					}
				}
			}
		}
	}
	JOINT RightUpLeg
	{
		OFFSET -11.289943 0.000000 0.000000
		CHANNELS 3 Zrotation Yrotation Xrotation
		JOINT RightLeg
		{
			OFFSET -0.000000 -38.200325 0.000000
			CHANNELS 3 Zrotation Yrotation Xrotation
			JOINT RightFoot
			{
				OFFSET 0.000000 -39.900856 -0.000000
				CHANNELS 3 Zrotation Yrotation Xrotation
				JOINT RightToeBase
				{
					OFFSET 0.000000 -0.000000 15.261641
					CHANNELS 3 Zrotation Yrotation Xrotation
					JOINT RightToeBaseEnd
					{
						OFFSET 0.000000 -0.000000 7.370709
						CHANNELS 3 Zrotation Yrotation Xrotation
						End Site
						{
							OFFSET 0.000000 0.000000 0.000000
						}
					}
				}
				JOINT RightLegEnd
				{
					OFFSET 0.000000 0.000000 0.000000
					CHANNELS 3 Zrotation Yrotation Xrotation
					End Site
					{
						OFFSET 0.000000 0.000000 0.000000
					}
				}
			}
			JOINT RightUpLegEnd
			{
				OFFSET 0.000000 0.000000 0.000000
				CHANNELS 3 Zrotation Yrotation Xrotation
				End Site
				{
					OFFSET 0.000000 0.000000 0.000000
				}
			}
		}
	}
	JOINT LeftUpLeg
	{
		OFFSET 11.315661 -0.000000 -0.000000
		CHANNELS 3 Zrotation Yrotation Xrotation
		JOINT LeftLeg
		{
			OFFSET 0.000000 -38.200325 0.000000
			CHANNELS 3 Zrotation Yrotation Xrotation
			JOINT LeftFoot
			{
				OFFSET 0.000000 -39.900856 -0.000000
				CHANNELS 3 Zrotation Yrotation Xrotation
				JOINT LeftToeBase
				{
					OFFSET -0.000000 0.000000 15.261641
					CHANNELS 3 Zrotation Yrotation Xrotation
					JOINT LeftToeBaseEnd
					{
						OFFSET -0.000000 -0.000000 7.539996
						CHANNELS 3 Zrotation Yrotation Xrotation
						End Site
						{
							OFFSET 0.000000 0.000000 0.000000
						}
					}
				}
				JOINT LeftLegEnd
				{
					OFFSET 0.000000 0.000000 0.000000
					CHANNELS 3 Zrotation Yrotation Xrotation
					End Site
					{
						OFFSET 0.000000 0.000000 0.000000
					}
				}
			}
			JOINT LeftUpLegEnd
			{
				OFFSET 0.000000 0.000000 0.000000
				CHANNELS 3 Zrotation Yrotation Xrotation
				End Site
				{
					OFFSET 0.000000 0.000000 0.000000
				}
			}
		}
	}
}
MOTION
Frames: 4
Frame Time: 0.016667
-0.302719 85.452522 8.560009 1.048889 0.472449 -24.245522 -2.249562 0.282376 12.242042 -0.341322 0.213528 6.082520 2.925683 0.135246 18.648750 3.755946 0.154669 10.138728 8.568745 -3.041527 10.659977 1.070313 -0.773401 -1.075605 1.447367 1.365133 -19.988310 0.000000 0.000000 0.000000 93.930412 -0.766510 11.211488 53.481647 -19.396370 15.691756 0.067533 9.930849 25.166721 5.468546 31.034687 -3.470101 0.028080 -0.028043 44.961143 0.000000 0.000000 -0.027183 0.000000 0.000000 -0.027183 0.000000 0.000000 0.000000 9.121570 16.792934 -9.217037 7.942558 -0.831234 -2.408757 7.941750 0.159137 -2.270590 0.000000 0.000000 0.000000 10.487310 6.899601 -9.763286 8.126077 -0.927754 -0.991464 8.125728 0.042283 -0.842600 0.000000 0.000000 0.000000 16.407059 -8.872378 -9.738794 10.350549 1.857395 1.622678 10.345169 -0.105753 1.263668 0.000000 0.000000 0.000000 22.129768 -25.549284 -11.446429 11.133028 3.490242 5.237912 11.112437 -0.434682 4.466144 0.000000 0.000000 0.000000 0.000000 0.000000 0.000000 0.000000 0.000000 0.000000 -90.096405 0.056171 14.472812 -57.268124 31.562056 17.626678 -0.953228 -15.660414 35.600510 -3.010960 -20.189074 -10.219023 -0.007791 0.007802 45.036652 0.000000 0.000000 0.000000 0.000000 0.000000 0.000000 0.000000 0.000000 0.000000 -16.763309 16.810160 -8.825007 -9.547728 -0.772176 2.891617 -9.546635 0.219860 2.725707 0.000000 0.000000 0.000000 -14.370190 6.909624 -9.262151 -9.223305 -0.917166 1.106076 -9.221083 0.081162 0.965056 0.000000 0.000000 0.000000 -13.582001 -8.911969 -8.085839 -10.317151 1.854592 -1.617517 -10.311993 -0.109091 -1.256065 0.000000 0.000000 0.000000 -11.441995 -25.676399 -9.699570 -10.187210 3.582987 -4.796404 -10.166566 -0.363930 -4.089511 0.000000 0.000000 0.000000 0.000000 0.000000 0.000000 0.000000 0.000000 0.000000 -4.046816 1.906456 10.852712 -0.170009 -0.236163 35.813072 -0.605335 -6.995266 5.543007 -0.656172 0.454062 -20.305984 0.000000 0.000000 0.000000 0.000000 0.000000 0.000000 0.000000 0.000000 0.000000 5.387815 1.903469 14.903759 0.566126 0.975492 30.030930 -5.511732 4.653952 6.350108 0.769018 -1.868685 -16.695671 0.000000 0.000000 0.000000 0.000000 0.000000 0.000000 0.000000 0.000000 0.000000 
-0.162716 85.646729 8.413855 0.675743 0.070154 -23.830652 -1.331481 0.255641 12.170991 0.034867 0.072406 5.341588 2.947762 0.072549 19.118324 2.564429 0.375392 9.825334 7.828750 -1.414386 12.435320 1.164479 1.030627 -0.979318 0.637057 1.087697 -20.265898 0.000000 0.000000 0.000000 92.472031 -0.395578 12.159822 56.328861 -21.746735 14.230332 0.373035 10.951048 27.097115 2.652522 32.299412 -5.093292 0.585102 -0.205372 44.629822 0.000002 -0.000003 -1.659743 -0.000009 0.000035 -1.133878 0.000019 0.000002 -0.000004 8.453304 16.667894 -8.732636 7.730806 -0.767102 -2.447078 7.714435 0.198650 -2.315735 -0.000016 -0.000007 -0.000008 9.434929 6.870419 -9.583371 7.585515 -0.904313 -0.982052 7.561087 0.071955 -0.849989 0.000015 -0.000101 0.000021 14.683642 -8.882726 -9.595519 9.129689 1.853204 1.424018 9.134873 -0.098624 1.114307 -0.000014 -0.000446 0.000015 19.995722 -25.333035 -11.407136 9.569305 3.553723 4.225843 9.488857 -0.331791 3.614049 -0.000014 0.000006 0.000015 0.000000 0.000000 0.000000 0.000000 0.000000 0.000000 -91.227318 -0.023971 14.026855 -56.148151 33.106495 16.476791 -0.796742 -15.667171 39.005333 -3.372932 -18.156670 -9.423180 -1.445675 0.310124 44.357403 0.000001 0.000022 -3.484641 0.000103 -0.000015 -2.478959 0.000498 -0.000016 -0.000435 -16.892319 16.521353 -9.980628 -9.413052 -0.728565 2.801467 -9.286672 0.229290 2.614682 -0.000003 0.000279 -0.000004 -14.812221 6.815147 -10.634334 -9.110984 -0.898180 1.065704 -8.974936 0.077535 0.919649 -0.000599 -0.000032 -0.000067 -13.241820 -8.793387 -9.773270 -9.846535 1.841075 -1.468396 -9.820402 -0.097776 -1.128850 0.000013 0.000006 -0.000006 -10.300091 -25.262062 -11.427184 -9.568643 3.589528 -4.053522 -9.378919 -0.295522 -3.408270 0.000125 -0.000012 -0.000024 0.000000 0.000000 0.000000 0.000000 0.000000 0.000000 -1.885038 4.784461 12.137902 -0.288930 -0.304264 34.354721 -0.705715 -8.813375 4.770154 -0.614628 0.790336 -18.852663 0.000000 0.000000 0.000000 0.000000 0.000000 0.000000 0.000000 0.000000 0.000000 6.498278 1.547631 15.804289 0.386781 0.821267 27.048952 -3.794333 5.411492 8.067309 0.790351 -1.638687 -16.550716 0.000000 0.000000 0.000000 0.000000 0.000000 0.000000 0.000000 0.000000 0.000000 
-0.110190 85.629272 8.352196 0.694649 0.068140 -23.865965 -1.330188 0.248182 12.205807 0.056937 0.070230 5.445882 2.813871 0.110927 19.072380 2.538524 0.366605 9.836603 7.533942 -1.179485 12.391919 1.131534 1.097188 -1.016392 0.569583 1.054989 -20.261347 0.000000 0.000000 0.000000 92.440201 -0.426286 12.236377 56.333229 -21.588083 14.260769 0.356973 10.894815 27.173750 2.121872 31.967779 -5.374712 0.583844 -0.210429 44.626789 0.000005 -0.000004 -1.682904 -0.000003 0.000034 -1.133760 0.000028 0.000010 -0.000018 8.173059 16.631563 -8.840486 7.590833 -0.775672 -2.420686 7.562466 0.189403 -2.292654 -0.000012 -0.000001 -0.000008 9.131025 6.861217 -9.641823 7.456214 -0.906836 -0.970753 7.426083 0.068887 -0.840868 0.000017 -0.000133 0.000012 14.360165 -8.876775 -9.625671 8.994710 1.857502 1.403689 9.017639 -0.093172 1.097227 -0.000018 -0.000283 0.000002 19.644623 -25.322002 -11.353449 9.469131 3.567698 4.175371 9.384062 -0.316930 3.568306 0.000031 0.000009 0.000005 0.000000 0.000000 0.000000 0.000000 0.000000 0.000000 -91.192955 -0.070981 14.065774 -56.437832 33.145569 16.344244 -0.795402 -15.601054 38.662476 -3.115599 -18.753546 -9.348323 -1.423234 0.312025 44.363293 0.000013 0.000027 -3.424164 0.000100 -0.000013 -2.432415 0.000437 -0.000008 -0.000166 -16.643341 16.487530 -10.007348 -9.266864 -0.732925 2.776108 -9.154202 0.224560 2.592826 0.000009 0.000257 -0.000007 -14.531917 6.807341 -10.628010 -8.979598 -0.899256 1.052827 -8.854943 0.075965 0.910042 -0.000629 -0.000033 -0.000078 -13.019059 -8.781913 -9.703794 -9.734867 1.842914 -1.457364 -9.702435 -0.094904 -1.120386 0.000310 0.000012 -0.000004 -10.115568 -25.238916 -11.343513 -9.457187 3.594413 -4.030182 -9.278884 -0.289035 -3.392244 0.000201 0.000002 -0.000034 0.000000 0.000000 0.000000 0.000000 0.000000 0.000000 -1.978001 4.797710 12.065853 -0.290125 -0.302856 34.419472 -0.736037 -8.703135 4.766492 -0.611115 0.803264 -18.853949 0.000000 0.000000 0.000000 0.000000 0.000000 0.000000 0.000000 0.000000 0.000000 6.473327 1.672234 15.698506 0.389846 0.826558 27.207502 -3.829903 5.407430 8.012907 0.796667 -1.644973 -16.552593 0.000000 0.000000 0.000000 0.000000 0.000000 0.000000 0.000000 0.000000 0.000000 
-0.060927 85.639153 8.315217 0.724258 0.049152 -23.850689 -1.365885 0.247212 12.172347 0.069821 0.068694 5.433560 2.731731 0.131436 19.029165 2.528778 0.356734 9.829585 7.245357 -0.977155 12.426840 1.118295 1.164566 -1.033942 0.524867 1.037922 -20.274197 0.000000 0.000000 0.000000 92.402718 -0.466185 12.241743 56.306995 -21.499222 14.332714 0.347856 10.782450 27.110620 1.693223 31.785664 -5.513723 0.571084 -0.211790 44.629101 0.000004 -0.000005 -1.665912 -0.000003 0.000035 -1.105932 0.000028 0.000009 -0.000018 7.914459 16.614546 -8.884584 7.480148 -0.782736 -2.399487 7.444114 0.182256 -2.273073 -0.000013 -0.000001 -0.000007 8.818484 6.858770 -9.657718 7.345373 -0.909045 -0.961224 7.312095 0.066393 -0.833323 0.000016 -0.000145 0.000013 13.968774 -8.879301 -9.622466 8.844173 1.861444 1.385861 8.884735 -0.088950 1.082985 -0.000017 -0.000211 0.000004 19.178558 -25.328445 -11.271265 9.317978 3.580547 4.123606 9.235538 -0.304853 3.525239 0.000042 0.000008 -0.000002 0.000000 0.000000 0.000000 0.000000 0.000000 0.000000 -91.137352 -0.088116 14.090427 -56.665855 33.132534 16.241474 -0.833428 -15.561055 38.298286 -2.940591 -19.341639 -9.250132 -1.409243 0.314064 44.365635 0.000012 0.000027 -3.382601 0.000089 -0.000013 -2.401885 0.000330 -0.000009 -0.000009 -16.425215 16.464878 -10.017965 -9.148904 -0.736861 2.756095 -9.042966 0.220764 2.575984 0.000007 0.000207 -0.000006 -14.306877 6.802508 -10.609147 -8.876806 -0.900377 1.043783 -8.753095 0.074579 0.903570 -0.000668 -0.000034 -0.000090 -12.870343 -8.776914 -9.620945 -9.654649 1.844972 -1.449325 -9.613984 -0.092668 -1.114076 0.000565 0.000012 -0.000004 -10.035336 -25.232113 -11.216206 -9.386177 3.598837 -4.016037 -9.211131 -0.284313 -3.381365 0.000255 0.000002 -0.000035 0.000000 0.000000 0.000000 0.000000 0.000000 0.000000 -2.069646 4.790477 12.090438 -0.291771 -0.307692 34.278980 -0.778808 -8.637540 4.898714 -0.614813 0.803576 -18.906921 0.000000 0.000000 0.000000 0.000000 0.000000 0.000000 0.000000 0.000000 0.000000 6.416049 1.777483 15.729021 0.390672 0.831586 27.027777 -3.795931 5.452977 8.111467 0.806759 -1.638657 -16.576241 0.000000 0.000000 0.000000 0.000000 0.000000 0.000000 0.000000 0.000000 0.000000 
